<svg width="1366" height="1366" viewBox="0 0 1366 1366" fill="none" xmlns="http://www.w3.org/2000/svg">
<path d="M634.887 263.73C567.383 267.283 483.497 281.889 464.943 293.337C457.443 297.877 453.495 306.759 454.877 315.444C455.469 318.996 466.128 346.037 478.563 375.447C534.026 505.717 568.173 616.644 596.596 759.744C601.925 786.588 607.649 811.063 609.228 814.024C613.175 821.919 626.4 833.17 635.084 836.13C645.348 839.88 718.181 840.078 729.827 836.525C740.288 833.17 750.946 824.88 756.078 815.998C758.644 811.458 763.578 791.72 769.105 765.074C798.909 616.25 831.674 510.454 891.875 367.354C910.429 323.536 912.6 317.417 911.613 309.522C911.021 304.39 909.047 298.864 906.678 296.693C893.454 283.468 805.62 267.48 724.103 263.533C680.679 261.362 675.745 261.559 634.887 263.73Z" fill="#D2954C"/>
<path d="M316.91 378.21C247.827 427.357 199.667 474.728 142.624 550.719C124.07 575.194 121.899 579.537 123.478 589.011C124.86 598.09 130.386 603.42 144.006 608.946C180.126 623.552 236.182 655.528 270.921 681.384C327.174 723.032 390.73 787.969 432.772 846.394C449.154 869.487 454.878 873.435 470.866 873.435C496.13 873.435 539.159 859.026 550.41 846.986C559.686 837.117 560.279 830.011 553.962 802.97C537.777 733.098 510.342 649.804 478.958 575.392C447.575 501.374 375.926 369.722 363.294 363.209C350.859 356.695 344.148 358.867 316.91 378.21Z" fill="#D2954C"/>
<path d="M1004.97 363.209C1001.62 364.788 992.144 378.802 978.92 401.106C914.179 510.059 868.98 611.117 835.228 722.439C822.201 765.665 809.568 816.787 809.568 826.656C809.568 844.815 819.043 853.105 853.584 864.553C872.335 870.869 878.454 872.053 893.652 872.25C915.561 872.448 912.798 874.421 942.799 836.722C977.143 793.693 998.066 770.205 1027.87 741.19C1080.96 689.477 1128.34 655.923 1193.47 623.552C1216.37 612.302 1236.89 600.656 1239.46 597.893C1245.58 590.985 1245.18 580.129 1238.67 570.26C1228.6 555.456 1189.92 506.112 1171.56 484.795C1138.4 446.108 1094.19 407.422 1047.81 376.039C1023.13 359.261 1016.03 357.09 1004.97 363.209Z" fill="#D2954C"/>
<path d="M75.9094 693.622C67.6194 698.754 65.0535 703.097 57.5531 723.427C30.5121 796.852 26.5645 876.593 46.6972 948.439C52.0265 967.19 62.0928 993.442 71.1723 1011.21C80.8439 1030.55 103.937 1063.31 118.741 1079.3C136.505 1098.45 149.532 1105.16 165.125 1103.97C179.731 1102.79 188.416 1096.47 204.601 1075.35C257.893 1006.67 297.369 968.769 359.938 925.938C374.544 916.069 385.4 907.187 386.782 904.029C389.94 897.121 389.743 888.238 386.387 881.725C382.637 874.817 319.278 812.445 300.33 797.247C251.577 757.968 182.692 719.874 126.636 700.925C92.884 689.477 84.3967 688.293 75.9094 693.622Z" fill="#D2954C"/>
<path d="M1257.82 695.004C1199.39 712.176 1125.97 750.862 1072.48 792.312C1052.35 807.905 991.947 865.934 982.868 878.172C976.946 886.462 975.762 895.344 979.71 904.226C981.091 907.187 989.579 914.49 1000.04 921.398C1064.98 964.821 1107.81 1003.71 1147.09 1054.83C1157.35 1068.25 1169 1083.45 1172.94 1088.58C1181.83 1099.83 1190.71 1104.37 1204.52 1104.37C1219.53 1104.37 1229.39 1098.64 1247.75 1079.5C1281.31 1043.97 1308.74 991.862 1322.75 936.399C1339.33 871.461 1334.8 795.47 1309.93 726.19C1302.03 703.886 1299.07 698.951 1290.58 693.82C1282.49 688.885 1278.15 689.082 1257.82 695.004Z" fill="#D2954C"/>
</svg>
